<svg width="490" height="481" viewBox="0 0 490 481" fill="none" xmlns="http://www.w3.org/2000/svg">
<g clip-path="url(#clip0_1_2)">
<path d="M136.031 380.013C100.457 350.973 77.0593 314.636 70.1508 269.406C62.8212 221.419 72.137 176.821 102.109 137.337C128.582 102.462 162.943 79.9538 205.432 70.1969C249.01 60.19 289.971 67.6119 328.213 90.6014C338.245 96.6324 347.538 103.605 355.87 111.846C357.698 113.654 359.148 115.529 359.138 118.305C359.093 130.636 359.135 142.968 359.104 155.299C359.102 156.063 358.745 156.826 358.349 158.4C351.949 153.74 349.042 146.27 341.973 142.852C356.754 174.423 363.337 207.663 363.252 242.128C366.745 242.639 368.055 240.647 369.498 239.205C373.149 235.557 376.538 231.646 380.224 228.036C382.312 225.99 383.038 223.719 383.015 220.887C382.925 209.722 383.033 198.554 382.909 187.389C382.864 183.324 383.96 180.031 386.971 177.112C394.148 170.154 401.142 163.005 408.119 155.845C410.736 153.158 413.735 151.951 417.482 151.984C426.814 152.065 436.149 151.852 445.479 151.985C450.081 152.05 454.404 152.043 457.445 147.726C458.244 146.592 459.748 145.953 461.185 144.898C464.989 148.398 465.941 153.107 467.668 157.284C475.287 175.71 479.208 195 481.461 214.781C485.644 251.503 481.244 287.269 469.01 321.877C454.483 362.976 429.756 397.116 396.125 425.045C361.646 453.679 322.037 470.579 278.266 478.114C239.657 484.761 201.78 481.273 164.644 468.571C117.388 452.408 78.8075 424.548 48.5524 384.798C26.9926 356.473 12.6071 325.043 5.166 290.295C-0.0423083 265.973 -0.491771 241.441 1.60073 216.81C6.67601 157.068 33.4468 107.791 75.8734 66.6992C112.338 31.3822 156.269 10.3641 206.465 2.66449C255.697 -4.88714 302.515 3.06177 347.136 24.9021C350.548 26.5725 352.982 28.5588 352.976 32.6996C352.958 46.5314 353.02 60.3633 353.025 74.1951C353.025 75.1695 353.047 76.2208 352.04 77.0524C350.436 77.7755 349.35 76.4491 348.17 75.6737C323.142 59.2163 295.735 48.6941 266.163 44.5974C234.239 40.1748 203.028 44.303 172.904 55.7546C143.952 66.7607 118.825 83.6213 97.5968 106.209C70.166 135.397 54.0655 170.078 48.267 209.537C42.5756 248.268 46.5608 285.83 63.0654 321.693C85.0598 369.485 119.932 404.153 168.577 424.464C188.209 432.661 208.78 437.082 230.18 437.788C258.637 438.726 286.396 435.483 312.884 424.685C347.139 410.721 375.34 388.859 397.58 359.159C416.956 333.283 429.092 304.366 434.317 272.673C439.075 243.811 438.198 214.989 430.521 186.573C430.217 185.449 429.865 184.334 429.471 183.238C428.136 179.525 425.992 178.463 422.856 181.408C419.212 184.828 415.673 188.36 412.029 191.779C409.986 193.696 411.123 195.942 411.484 197.899C414.235 212.835 415.745 227.875 415.276 243.056C413.982 284.865 400.905 322.206 373.642 354.431C346.489 386.527 311.985 406.246 271.145 413.856C223.235 422.784 179.29 411.785 139.926 382.91C138.717 382.023 137.514 381.127 136.031 380.013ZM156.348 180.725C155.23 184.556 154.015 188.362 153.013 192.223C151.36 198.596 152.127 199.631 158.646 199.644C179.803 199.685 200.962 199.554 222.118 199.739C226.528 199.778 227.858 198.305 227.84 193.976C227.714 163.823 227.808 133.669 227.81 103.515C227.81 97.9267 226.907 97.3185 221.675 99.4542C209.122 104.579 198.416 112.587 189.186 122.241C173.502 138.646 163.038 158.229 156.348 180.725ZM294.942 123.556C285.573 113.103 274.585 104.932 261.474 99.7241C255.758 97.4534 255.265 97.7142 255.261 103.96C255.242 133.787 255.35 163.614 255.17 193.439C255.142 198.206 256.57 199.809 261.391 199.76C282.384 199.545 303.381 199.671 324.376 199.632C330.036 199.621 330.784 198.9 329.628 193.591C323.971 167.607 313.285 144.067 294.942 123.556ZM159.306 296.352C156.994 295.644 154.87 294.078 152.121 294.71C151.696 296.983 152.434 299.013 152.99 301.054C158.35 320.73 167.197 338.726 179.908 354.642C190.869 368.366 204.192 379.239 220.938 385.351C227.333 387.685 227.829 387.297 227.841 380.673C227.878 359.03 227.902 337.387 227.915 315.744C227.919 309.098 227.317 308.583 220.44 308.332C199.699 307.572 179.505 303.96 159.306 296.352ZM255.209 315.705C255.202 335.512 255.229 355.318 255.177 375.124C255.142 388.696 255.351 388.899 267.62 382.961C289.757 372.249 305.293 354.94 316.692 333.549C322.034 323.527 325.829 312.88 329.187 302.071C329.81 300.064 330.726 297.648 328.892 295.969C327.325 294.535 325.386 296.042 323.709 296.538C318.611 298.047 313.603 299.863 308.491 301.314C292.766 305.778 276.622 307.744 260.376 308.854C256.231 309.137 254.743 310.889 255.209 315.705ZM147.485 261.524C147.892 263.174 149.209 263.886 150.59 264.526C173.519 275.157 197.683 280.65 222.863 282.013C226.541 282.213 227.932 280.82 227.896 277.147C227.747 261.822 227.681 246.495 227.776 231.171C227.799 227.396 226.264 226.296 222.707 226.304C199.219 226.354 175.73 226.307 152.242 226.177C148.577 226.157 147.204 227.577 147.264 231.21C147.426 241.036 147.366 250.866 147.485 261.524ZM302.844 275.284C312.4 272.361 321.888 269.284 330.926 264.92C333.712 263.574 334.857 261.883 334.819 258.773C334.712 249.944 334.707 241.106 335.021 232.285C335.183 227.756 333.646 226.14 329.035 226.176C306.373 226.352 283.708 226.363 261.047 226.181C256.299 226.143 255.019 228.055 255.079 232.424C255.265 245.919 255.147 259.419 255.234 272.916C255.253 275.862 254.674 278.883 255.967 282.219C271.552 281.529 286.932 279.424 302.844 275.284ZM140.542 139.552C120.269 157.867 107.746 180.555 101.066 206.985C98.4923 217.167 98.8145 225.353 107.378 232.356C111.271 235.54 114.198 239.865 119.168 243.507C120.258 233.871 119.637 225.234 120.509 216.666C122.388 198.204 125.913 180.194 132.8 162.944C135.635 155.843 139.055 148.977 142.072 141.946C142.412 141.152 144.94 138.743 140.542 139.552ZM358.9 297.142C355.685 312.411 350.776 327.148 344.212 342.103C362.66 329.187 387.171 277.794 382.636 262.071C376.174 267.177 369.797 272.207 363.431 277.252C362.214 278.217 361.541 279.439 361.33 281.054C360.665 286.152 359.854 291.231 358.9 297.142ZM134.057 330.316C127.297 314.288 122.805 297.653 120.722 280.378C120.581 279.208 120.576 278.038 119.532 277.231C113.021 272.198 106.511 267.164 99.7637 261.949C97.9159 284.283 120.667 328.911 138.287 340.858C137.687 337.087 135.693 334.17 134.057 330.316Z" fill="black"/>
<path d="M398.432 133.432C395.261 136.046 393.171 139.422 389.669 141.007C387.104 139.664 387.769 137.44 387.752 135.585C387.661 125.592 387.434 115.59 387.742 105.607C387.967 98.3369 386.705 91.5717 384.329 84.6803C370.708 45.1727 399.83 7.19455 441.537 9.77145C464.215 11.1727 484.908 30.4864 489.161 54.2214C493.614 79.073 483.505 101.084 461.487 113.164C449.506 119.738 436.572 121.294 423.326 117.391C419.303 116.205 416.596 116.972 413.631 119.953C408.947 124.661 403.701 128.809 398.432 133.432ZM443.623 55.8558C438.07 51.6672 433.443 51.2606 428.57 54.5325C424.087 57.5421 421.524 63.4452 422.926 67.835C424.445 72.589 427.306 76.0294 432.563 76.729C438.917 77.5745 443.242 75.573 446.088 70.5749C449.061 65.3536 447.809 60.7039 443.623 55.8558Z" fill="black"/>
</g>
<defs>
<clipPath id="clip0_1_2">
<rect width="490" height="481" fill="white"/>
</clipPath>
</defs>
</svg>
